<?xml version="1.0" encoding="UTF-8" standalone="no"?>
<!DOCTYPE svg PUBLIC "-//W3C//DTD SVG 1.1//EN"
 "http://www.w3.org/Graphics/SVG/1.1/DTD/svg11.dtd">
<!-- Generated by graphviz version 2.47.3 (20210619.1520)
 -->
<!-- Title: G Pages: 1 -->
<svg width="362pt" height="280pt"
 viewBox="0.00 0.00 362.32 280.44" xmlns="http://www.w3.org/2000/svg" xmlns:xlink="http://www.w3.org/1999/xlink">
<g id="graph0" class="graph" transform="scale(1 1) rotate(0) translate(4 276.44)">
<title>G</title>
<!-- ADR -->
<g id="node1" class="node">
<title>ADR</title>
<polygon fill="lightgrey" stroke="black" points="203.24,-154.19 149.24,-154.19 149.24,-118.19 203.24,-118.19 203.24,-154.19"/>
<text text-anchor="middle" x="176.24" y="-132.49" font-family="Times,serif" font-size="14.00">ADR</text>
</g>
<!-- Article in Outline -->
<g id="node2" class="node">
<title>Article in Outline</title>
<polygon fill="lightgrey" stroke="black" points="354.32,-94.74 241.32,-94.74 241.32,-58.74 354.32,-58.74 354.32,-94.74"/>
<text text-anchor="middle" x="297.82" y="-73.04" font-family="Times,serif" font-size="14.00">Article in Outline</text>
</g>
<!-- ADR&#45;&#45;Article in Outline -->
<g id="edge1" class="edge">
<title>ADR&#45;&#45;Article in Outline</title>
<path fill="none" stroke="#fe0300" d="M203.53,-122.85C220.47,-114.56 242.46,-103.81 260.95,-94.77"/>
</g>
<!-- Code -->
<g id="node3" class="node">
<title>Code</title>
<polygon fill="lightgrey" stroke="black" points="202.96,-36 148.96,-36 148.96,0 202.96,0 202.96,-36"/>
<text text-anchor="middle" x="175.96" y="-14.3" font-family="Times,serif" font-size="14.00">Code</text>
</g>
<!-- ADR&#45;&#45;Code -->
<g id="edge2" class="edge">
<title>ADR&#45;&#45;Code</title>
<path fill="none" stroke="#fe0300" d="M176.2,-117.98C176.15,-95.71 176.06,-58.23 176,-36.03"/>
</g>
<!-- Task in ClickUp -->
<g id="node4" class="node">
<title>Task in ClickUp</title>
<polygon fill="lightgrey" stroke="black" points="109.26,-214.99 2.26,-214.99 2.26,-178.99 109.26,-178.99 109.26,-214.99"/>
<text text-anchor="middle" x="55.76" y="-193.29" font-family="Times,serif" font-size="14.00">Task in ClickUp</text>
</g>
<!-- ADR&#45;&#45;Task in ClickUp -->
<g id="edge3" class="edge">
<title>ADR&#45;&#45;Task in ClickUp</title>
<path fill="none" stroke="#fe0300" d="M149.21,-149.83C132.28,-158.38 110.26,-169.49 91.85,-178.78"/>
</g>
<!-- Diagrams -->
<g id="node5" class="node">
<title>Diagrams</title>
<polygon fill="lightgrey" stroke="black" points="333.82,-212.25 263.82,-212.25 263.82,-176.25 333.82,-176.25 333.82,-212.25"/>
<text text-anchor="middle" x="298.82" y="-190.55" font-family="Times,serif" font-size="14.00">Diagrams</text>
</g>
<!-- ADR&#45;&#45;Diagrams -->
<g id="edge4" class="edge">
<title>ADR&#45;&#45;Diagrams</title>
<path fill="none" stroke="#fe0300" d="M203.45,-149.07C221.22,-157.49 244.6,-168.57 263.76,-177.65"/>
</g>
<!-- Spike -->
<g id="node6" class="node">
<title>Spike</title>
<polygon fill="lightgrey" stroke="black" points="205.69,-272.44 151.69,-272.44 151.69,-236.44 205.69,-236.44 205.69,-272.44"/>
<text text-anchor="middle" x="178.69" y="-250.74" font-family="Times,serif" font-size="14.00">Spike</text>
</g>
<!-- ADR&#45;&#45;Spike -->
<g id="edge5" class="edge">
<title>ADR&#45;&#45;Spike</title>
<path fill="none" stroke="#fe0300" d="M176.62,-154.41C177.08,-176.69 177.86,-214.19 178.32,-236.39"/>
</g>
<!-- Supporting Docs -->
<g id="node7" class="node">
<title>Supporting Docs</title>
<polygon fill="lightgrey" stroke="black" points="108,-96.01 0,-96.01 0,-60.01 108,-60.01 108,-96.01"/>
<text text-anchor="middle" x="54" y="-74.31" font-family="Times,serif" font-size="14.00">Supporting Docs</text>
</g>
<!-- ADR&#45;&#45;Supporting Docs -->
<g id="edge6" class="edge">
<title>ADR&#45;&#45;Supporting Docs</title>
<path fill="none" stroke="#fe0300" d="M149.11,-123.28C132.37,-115.31 110.64,-104.97 92.18,-96.18"/>
</g>
</g>
</svg>
